{
date = "2013-12-02 21:40:35 +0000";
designer = "Shinji Pons";
designerURL = www.shinjipons.com;
familyName = "Modulo 18";
fontMaster = (
{
alignmentZones = (
"{1280, 10}",
"{0, -10}"
);
ascender = 1280;
capHeight = 1280;
customParameters = (
{
name = familyName;
value = "Modulo 06";
}
);
descender = 0;
guideLines = (
{
position = "{1534, 550}";
},
{
angle = 90;
position = "{810, -124}";
},
{
angle = 90;
position = "{630, -117}";
},
{
position = "{1533, 730}";
},
{
angle = 90;
position = "{80, -86}";
},
{
angle = 90;
position = "{1180, -69}";
},
{
position = "{1520, 1100}";
},
{
position = "{1510, 180}";
},
{
angle = 90;
position = "{1360, -75}";
},
{
angle = 90;
position = "{260, -90}";
}
);
horizontalStems = (
60
);
id = "940E2F63-624A-4C3D-A909-721782B4CF41";
verticalStems = (
60
);
weightValue = 6;
widthValue = 128;
xHeight = 1280;
}
);
glyphs = (
{
glyphname = A;
lastChange = "2014-01-05 14:58:21 +0000";
layers = (
{
guideLines = (
{
position = "{1029, 321}";
showMeasurement = 1;
},
{
angle = 90;
position = "{511, 1025}";
showMeasurement = 1;
}
);
layerId = "940E2F63-624A-4C3D-A909-721782B4CF41";
name = Regular;
paths = (
{
closed = 1;
nodes = (
"260 1280 LINE",
"80 1100 LINE",
"1180 1100 LINE",
"1180 180 LINE",
"260 180 LINE",
"260 550 LINE",
"810 550 LINE",
"630 730 LINE",
"260 730 LINE",
"80 550 LINE",
"80 180 LINE",
"260 0 LINE",
"1180 0 LINE",
"1360 180 LINE",
"1360 1100 LINE",
"1180 1280 LINE"
);
}
);
width = 1440;
}
);
unicode = 0041;
},
{
glyphname = B;
lastChange = "2014-01-05 14:58:21 +0000";
layers = (
{
layerId = "940E2F63-624A-4C3D-A909-721782B4CF41";
name = Regular;
paths = (
{
closed = 1;
nodes = (
"260 1280 LINE",
"80 1100 LINE",
"80 180 LINE",
"260 0 LINE",
"260 1100 LINE",
"1180 1100 LINE",
"1180 730 LINE",
"630 730 LINE",
"810 550 LINE",
"1180 550 LINE",
"1180 180 LINE",
"630 180 LINE",
"810 0 LINE",
"1180 0 LINE",
"1360 180 LINE",
"1360 1100 LINE",
"1180 1280 LINE"
);
}
);
width = 1440;
}
);
unicode = 0042;
},
{
glyphname = C;
lastChange = "2014-01-05 14:58:21 +0000";
layers = (
{
layerId = "940E2F63-624A-4C3D-A909-721782B4CF41";
name = Regular;
paths = (
{
closed = 1;
nodes = (
"260 1280 LINE",
"80 1100 LINE",
"80 180 LINE",
"260 0 LINE",
"1180 0 LINE",
"1360 180 LINE",
"260 180 LINE",
"260 1100 LINE",
"1360 1100 LINE",
"1180 1280 LINE"
);
}
);
width = 1440;
}
);
unicode = 0043;
},
{
glyphname = D;
lastChange = "2014-01-05 14:58:21 +0000";
layers = (
{
layerId = "940E2F63-624A-4C3D-A909-721782B4CF41";
name = Regular;
paths = (
{
closed = 1;
nodes = (
"260 1280 LINE",
"80 1100 LINE",
"1180 1100 LINE",
"1180 180 LINE",
"260 180 LINE",
"260 730 LINE",
"80 550 LINE",
"80 180 LINE",
"260 0 LINE",
"1180 0 LINE",
"1360 180 LINE",
"1360 1100 LINE",
"1180 1280 LINE"
);
}
);
width = 1440;
}
);
unicode = 0044;
},
{
glyphname = E;
lastChange = "2014-01-05 14:58:21 +0000";
layers = (
{
layerId = "940E2F63-624A-4C3D-A909-721782B4CF41";
name = Regular;
paths = (
{
closed = 1;
nodes = (
"810 1280 LINE",
"630 1100 LINE",
"1180 1100 LINE",
"1180 730 LINE",
"260 730 LINE",
"260 1280 LINE",
"80 1100 LINE",
"80 180 LINE",
"260 0 LINE",
"1180 0 LINE",
"1360 180 LINE",
"260 180 LINE",
"260 550 LINE",
"1180 550 LINE",
"1360 730 LINE",
"1360 1100 LINE",
"1180 1280 LINE"
);
}
);
width = 1440;
}
);
unicode = 0045;
},
{
glyphname = F;
lastChange = "2014-01-05 14:58:21 +0000";
layers = (
{
layerId = "940E2F63-624A-4C3D-A909-721782B4CF41";
name = Regular;
paths = (
{
closed = 1;
nodes = (
"260 1280 LINE",
"80 1100 LINE",
"80 180 LINE",
"260 0 LINE",
"260 550 LINE",
"1180 550 LINE",
"1360 730 LINE",
"260 730 LINE",
"260 1100 LINE",
"1360 1100 LINE",
"1180 1280 LINE"
);
}
);
width = 1440;
}
);
unicode = 0046;
},
{
glyphname = H;
lastChange = "2014-01-05 14:58:21 +0000";
layers = (
{
layerId = "940E2F63-624A-4C3D-A909-721782B4CF41";
name = Regular;
paths = (
{
closed = 1;
nodes = (
"1180 730 LINE",
"260 730 LINE",
"260 1280 LINE",
"80 1100 LINE",
"80 180 LINE",
"260 0 LINE",
"260 550 LINE",
"1180 550 LINE",
"1180 0 LINE",
"1360 180 LINE",
"1360 1100 LINE",
"1180 1280 LINE"
);
}
);
width = 1440;
}
);
unicode = 0048;
},
{
glyphname = J;
lastChange = "2014-01-05 14:58:21 +0000";
layers = (
{
layerId = "940E2F63-624A-4C3D-A909-721782B4CF41";
name = Regular;
paths = (
{
closed = 1;
nodes = (
"810 1280 LINE",
"630 1100 LINE",
"1180 1100 LINE",
"1180 180 LINE",
"80 180 LINE",
"260 0 LINE",
"1180 0 LINE",
"1360 180 LINE",
"1360 1100 LINE",
"1180 1280 LINE"
);
}
);
width = 1440;
}
);
unicode = 004A;
},
{
glyphname = K;
lastChange = "2014-01-05 14:58:21 +0000";
layers = (
{
layerId = "940E2F63-624A-4C3D-A909-721782B4CF41";
name = Regular;
paths = (
{
closed = 1;
nodes = (
"810 1280 LINE",
"630 1100 LINE",
"630 730 LINE",
"260 730 LINE",
"260 1280 LINE",
"80 1100 LINE",
"80 180 LINE",
"260 0 LINE",
"260 550 LINE",
"1180 550 LINE",
"1180 0 LINE",
"1360 180 LINE",
"1360 550 LINE",
"1180 730 LINE",
"810 730 LINE",
"810 1100 LINE",
"1360 1100 LINE",
"1180 1280 LINE"
);
}
);
width = 1440;
}
);
unicode = 004B;
},
{
glyphname = L;
lastChange = "2014-01-05 14:58:21 +0000";
layers = (
{
layerId = "940E2F63-624A-4C3D-A909-721782B4CF41";
name = Regular;
paths = (
{
closed = 1;
nodes = (
"80 1100 LINE",
"80 180 LINE",
"260 0 LINE",
"1180 0 LINE",
"1360 180 LINE",
"260 180 LINE",
"260 1280 LINE"
);
}
);
width = 1440;
}
);
unicode = 004C;
},
{
glyphname = M;
lastChange = "2014-01-05 14:58:21 +0000";
layers = (
{
layerId = "940E2F63-624A-4C3D-A909-721782B4CF41";
name = Regular;
paths = (
{
closed = 1;
nodes = (
"260 1280 LINE",
"80 1100 LINE",
"80 180 LINE",
"260 0 LINE",
"260 1100 LINE",
"630 1100 LINE",
"630 180 LINE",
"810 0 LINE",
"810 1100 LINE",
"1180 1100 LINE",
"1180 0 LINE",
"1360 180 LINE",
"1360 1100 LINE",
"1180 1280 LINE"
);
}
);
width = 1440;
}
);
unicode = 004D;
},
{
glyphname = N;
lastChange = "2014-01-05 14:58:21 +0000";
layers = (
{
layerId = "940E2F63-624A-4C3D-A909-721782B4CF41";
name = Regular;
paths = (
{
closed = 1;
nodes = (
"1180 180 LINE",
"810 180 LINE",
"810 1100 LINE",
"630 1280 LINE",
"260 1280 LINE",
"80 1100 LINE",
"80 180 LINE",
"260 0 LINE",
"260 1100 LINE",
"630 1100 LINE",
"630 180 LINE",
"810 0 LINE",
"1180 0 LINE",
"1360 180 LINE",
"1360 1100 LINE",
"1180 1280 LINE"
);
}
);
width = 1440;
}
);
unicode = 004E;
},
{
glyphname = O;
lastChange = "2014-01-05 14:58:21 +0000";
layers = (
{
layerId = "940E2F63-624A-4C3D-A909-721782B4CF41";
name = Regular;
paths = (
{
closed = 1;
nodes = (
"260 1280 LINE",
"80 1100 LINE",
"80 180 LINE",
"260 0 LINE",
"1180 0 LINE",
"1360 180 LINE",
"1360 1100 LINE",
"1180 1280 LINE"
);
},
{
closed = 1;
nodes = (
"1180 180 LINE",
"260 180 LINE",
"260 1100 LINE",
"1180 1100 LINE"
);
}
);
width = 1440;
}
);
unicode = 004F;
},
{
glyphname = P;
lastChange = "2014-01-05 14:58:21 +0000";
layers = (
{
layerId = "940E2F63-624A-4C3D-A909-721782B4CF41";
name = Regular;
paths = (
{
closed = 1;
nodes = (
"260 1280 LINE",
"80 1100 LINE",
"80 180 LINE",
"260 0 LINE",
"260 1100 LINE",
"1180 1100 LINE",
"1181 730 LINE",
"631 730 LINE",
"810 550 LINE",
"1180 550 LINE",
"1360 730 LINE",
"1360 1100 LINE",
"1180 1280 LINE"
);
}
);
width = 1440;
}
);
unicode = 0050;
},
{
glyphname = Q;
lastChange = "2014-01-05 14:58:21 +0000";
layers = (
{
layerId = "940E2F63-624A-4C3D-A909-721782B4CF41";
name = Regular;
paths = (
{
closed = 1;
nodes = (
"260 1280 LINE",
"80 1100 LINE",
"80 180 LINE",
"260 0 LINE",
"1180 0 LINE",
"1360 180 LINE",
"1360 1100 LINE",
"1180 1280 LINE"
);
},
{
closed = 1;
nodes = (
"1180 180 LINE",
"810 180 LINE",
"810 550 LINE",
"630 730 LINE",
"630 180 LINE",
"260 180 LINE",
"260 1100 LINE",
"1180 1100 LINE"
);
}
);
width = 1440;
}
);
unicode = 0051;
},
{
glyphname = R;
lastChange = "2014-01-05 14:58:21 +0000";
layers = (
{
layerId = "940E2F63-624A-4C3D-A909-721782B4CF41";
name = Regular;
paths = (
{
closed = 1;
nodes = (
"260 1280 LINE",
"80 1100 LINE",
"80 180 LINE",
"260 0 LINE",
"260 1100 LINE",
"1180 1100 LINE",
"1180 730 LINE",
"810 730 LINE",
"630 550 LINE",
"630 180 LINE",
"810 0 LINE",
"1180 0 LINE",
"1360 180 LINE",
"810 180 LINE",
"810 550 LINE",
"1180 550 LINE",
"1360 730 LINE",
"1360 1100 LINE",
"1180 1280 LINE"
);
}
);
width = 1440;
}
);
unicode = 0052;
},
{
glyphname = T;
lastChange = "2014-01-05 14:58:21 +0000";
layers = (
{
layerId = "940E2F63-624A-4C3D-A909-721782B4CF41";
name = Regular;
paths = (
{
closed = 1;
nodes = (
"260 1280 LINE",
"80 1100 LINE",
"630 1100 LINE",
"630 180 LINE",
"810 0 LINE",
"810 1100 LINE",
"1360 1100 LINE",
"1180 1280 LINE"
);
}
);
width = 1440;
}
);
unicode = 0054;
},
{
glyphname = V;
lastChange = "2014-01-05 14:58:21 +0000";
layers = (
{
layerId = "940E2F63-624A-4C3D-A909-721782B4CF41";
name = Regular;
paths = (
{
closed = 1;
nodes = (
"1180 730 LINE",
"810 730 LINE",
"630 550 LINE",
"630 180 LINE",
"260 180 LINE",
"260 1280 LINE",
"80 1100 LINE",
"80 180 LINE",
"260 0 LINE",
"630 0 LINE",
"810 180 LINE",
"810 550 LINE",
"1180 550 LINE",
"1360 730 LINE",
"1360 1100 LINE",
"1180 1280 LINE"
);
}
);
width = 1440;
}
);
unicode = 0056;
},
{
glyphname = X;
lastChange = "2014-01-05 14:58:21 +0000";
layers = (
{
layerId = "940E2F63-624A-4C3D-A909-721782B4CF41";
name = Regular;
paths = (
{
closed = 1;
nodes = (
"260 1280 LINE",
"80 1100 LINE",
"80 730 LINE",
"260 550 LINE",
"260 1100 LINE",
"630 1100 LINE",
"630 180 LINE",
"80 180 LINE",
"260 0 LINE",
"1180 0 LINE",
"1360 180 LINE",
"1360 550 LINE",
"1180 730 LINE",
"1180 180 LINE",
"810 180 LINE",
"810 1100 LINE",
"1360 1100 LINE",
"1180 1280 LINE"
);
}
);
width = 1440;
}
);
unicode = 0058;
},
{
glyphname = Y;
lastChange = "2014-01-05 14:58:21 +0000";
layers = (
{
layerId = "940E2F63-624A-4C3D-A909-721782B4CF41";
name = Regular;
paths = (
{
closed = 1;
nodes = (
"1180 730 LINE",
"260 730 LINE",
"260 1280 LINE",
"80 1100 LINE",
"80 730 LINE",
"260 550 LINE",
"1180 550 LINE",
"1180 180 LINE",
"80 180 LINE",
"260 0 LINE",
"1180 0 LINE",
"1360 180 LINE",
"1360 1100 LINE",
"1180 1280 LINE"
);
}
);
width = 1440;
}
);
unicode = 0059;
},
{
glyphname = zero;
lastChange = "2014-01-05 14:58:21 +0000";
layers = (
{
components = (
{
name = O;
transform = "{1, 0, 0, 1, 0, 0}";
}
);
layerId = "940E2F63-624A-4C3D-A909-721782B4CF41";
name = Regular;
paths = (
{
closed = 1;
nodes = (
"630 730 LINE",
"630 550 LINE",
"810 730 LINE"
);
}
);
width = 1440;
}
);
unicode = 0030;
},
{
glyphname = one;
lastChange = "2014-01-05 14:58:21 +0000";
layers = (
{
layerId = "940E2F63-624A-4C3D-A909-721782B4CF41";
name = Regular;
paths = (
{
closed = 1;
nodes = (
"260 1280 LINE",
"80 1100 LINE",
"630 1100 LINE",
"630 180 LINE",
"80 180 LINE",
"260 0 LINE",
"1180 0 LINE",
"1360 180 LINE",
"810 180 LINE",
"810 1100 LINE",
"630 1280 LINE"
);
}
);
width = 1440;
}
);
unicode = 0031;
},
{
glyphname = four;
lastChange = "2014-01-05 14:58:21 +0000";
layers = (
{
layerId = "940E2F63-624A-4C3D-A909-721782B4CF41";
name = Regular;
paths = (
{
closed = 1;
nodes = (
"1180 730 LINE",
"260 730 LINE",
"260 1280 LINE",
"80 1100 LINE",
"80 730 LINE",
"260 550 LINE",
"1180 550 LINE",
"1180 0 LINE",
"1360 180 LINE",
"1360 1100 LINE",
"1180 1280 LINE"
);
}
);
width = 1440;
}
);
unicode = 0034;
},
{
glyphname = seven;
lastChange = "2014-01-05 14:58:21 +0000";
layers = (
{
layerId = "940E2F63-624A-4C3D-A909-721782B4CF41";
name = Regular;
paths = (
{
closed = 1;
nodes = (
"260 1280 LINE",
"80 1100 LINE",
"1180 1100 LINE",
"1180 730 LINE",
"810 730 LINE",
"630 550 LINE",
"630 180 LINE",
"810 0 LINE",
"810 550 LINE",
"1180 550 LINE",
"1360 730 LINE",
"1360 1100 LINE",
"1180 1280 LINE"
);
}
);
width = 1440;
}
);
unicode = 0037;
},
{
glyphname = eight;
lastChange = "2014-01-05 14:58:21 +0000";
layers = (
{
layerId = "940E2F63-624A-4C3D-A909-721782B4CF41";
name = Regular;
paths = (
{
closed = 1;
nodes = (
"260 1280 LINE",
"80 1100 LINE",
"80 180 LINE",
"260 0 LINE",
"1180 0 LINE",
"1360 180 LINE",
"1360 1100 LINE",
"1180 1280 LINE"
);
},
{
closed = 1;
nodes = (
"1180 180 LINE",
"260 180 LINE",
"260 550 LINE",
"1180 550 LINE"
);
},
{
closed = 1;
nodes = (
"1180 730 LINE",
"260 730 LINE",
"260 1100 LINE",
"1180 1100 LINE"
);
}
);
width = 1440;
}
);
unicode = 0038;
},
{
glyphname = asterisk;
lastChange = "2014-01-05 14:58:21 +0000";
layers = (
{
components = (
{
name = plus;
transform = "{1, 0, 0, 1, 0, 0}";
}
);
layerId = "940E2F63-624A-4C3D-A909-721782B4CF41";
name = Regular;
paths = (
{
closed = 1;
nodes = (
"1180 1100 LINE",
"1360 1100 LINE",
"1180 1280 LINE"
);
},
{
closed = 1;
nodes = (
"80 180 LINE",
"260 0 LINE",
"260 180 LINE"
);
},
{
closed = 1;
nodes = (
"80 1100 LINE",
"260 1100 LINE",
"260 1280 LINE"
);
},
{
closed = 1;
nodes = (
"1180 180 LINE",
"1180 0 LINE",
"1360 180 LINE"
);
}
);
width = 1440;
}
);
unicode = 002A;
},
{
glyphname = backslash;
lastChange = "2014-01-05 14:58:21 +0000";
layers = (
{
layerId = "940E2F63-624A-4C3D-A909-721782B4CF41";
name = Regular;
paths = (
{
closed = 1;
nodes = (
"1180 0 LINE",
"1360 180 LINE",
"1360 1100 LINE",
"1180 1280 LINE"
);
},
{
closed = 1;
nodes = (
"80 1100 LINE",
"80 180 LINE",
"260 0 LINE",
"260 1280 LINE"
);
},
{
closed = 1;
nodes = (
"630 180 LINE",
"810 0 LINE",
"810 1100 LINE",
"630 1280 LINE"
);
}
);
width = 1440;
}
);
unicode = 005C;
},
{
glyphname = bullet;
lastChange = "2014-01-05 14:58:21 +0000";
layers = (
{
layerId = "940E2F63-624A-4C3D-A909-721782B4CF41";
name = Regular;
paths = (
{
closed = 1;
nodes = (
"260 1280 LINE",
"80 1100 LINE",
"1360 1100 LINE",
"1180 1280 LINE"
);
},
{
closed = 1;
nodes = (
"80 180 LINE",
"260 0 LINE",
"1180 0 LINE",
"1360 180 LINE"
);
},
{
closed = 1;
nodes = (
"260 730 LINE",
"80 550 LINE",
"1180 550 LINE",
"1360 730 LINE"
);
}
);
width = 1440;
}
);
unicode = 2022;
},
{
glyphname = comma;
lastChange = "2014-01-05 14:58:21 +0000";
layers = (
{
layerId = "940E2F63-624A-4C3D-A909-721782B4CF41";
name = Regular;
paths = (
{
closed = 1;
nodes = (
"260 1280 LINE",
"80 1100 LINE",
"80 180 LINE",
"260 0 LINE",
"1180 0 LINE",
"1360 180 LINE",
"1360 1100 LINE",
"1180 1280 LINE"
);
}
);
width = 1440;
}
);
unicode = 002C;
},
{
glyphname = ellipsis;
lastChange = "2014-01-05 14:58:21 +0000";
layers = (
{
layerId = "940E2F63-624A-4C3D-A909-721782B4CF41";
name = Regular;
paths = (
{
closed = 1;
nodes = (
"260 1280 LINE",
"80 1100 LINE",
"1360 1100 LINE",
"1180 1280 LINE"
);
},
{
closed = 1;
nodes = (
"80 180 LINE",
"260 0 LINE",
"260 180 LINE"
);
},
{
closed = 1;
nodes = (
"630 180 LINE",
"810 0 LINE",
"810 180 LINE"
);
},
{
closed = 1;
nodes = (
"1180 180 LINE",
"1180 0 LINE",
"1360 180 LINE"
);
},
{
closed = 1;
nodes = (
"260 730 LINE",
"80 550 LINE",
"1180 550 LINE",
"1360 730 LINE"
);
}
);
width = 1440;
}
);
unicode = 2026;
},
{
glyphname = exclam;
lastChange = "2014-01-05 14:58:21 +0000";
layers = (
{
layerId = "940E2F63-624A-4C3D-A909-721782B4CF41";
name = Regular;
paths = (
{
closed = 1;
nodes = (
"1180 550 LINE",
"1360 730 LINE",
"1360 1100 LINE",
"1180 1280 LINE"
);
},
{
closed = 1;
nodes = (
"80 180 LINE",
"260 0 LINE",
"260 180 LINE"
);
},
{
closed = 1;
nodes = (
"630 180 LINE",
"810 0 LINE",
"810 180 LINE"
);
},
{
closed = 1;
nodes = (
"80 1100 LINE",
"80 730 LINE",
"260 550 LINE",
"260 1280 LINE"
);
},
{
closed = 1;
nodes = (
"1180 180 LINE",
"1180 0 LINE",
"1360 180 LINE"
);
},
{
closed = 1;
nodes = (
"630 730 LINE",
"810 550 LINE",
"810 1100 LINE",
"630 1280 LINE"
);
}
);
width = 1440;
}
);
unicode = 0021;
},
{
color = 1;
glyphname = numbersign;
lastChange = "2014-01-05 14:58:21 +0000";
layers = (
{
layerId = "940E2F63-624A-4C3D-A909-721782B4CF41";
name = Regular;
paths = (
{
closed = 1;
nodes = (
"260 1280 LINE",
"80 1100 LINE",
"80 180 LINE",
"260 0 LINE",
"1180 0 LINE",
"1360 180 LINE",
"1360 1100 LINE",
"1180 1280 LINE"
);
},
{
closed = 1;
nodes = (
"630 180 LINE",
"260 180 LINE",
"260 550 LINE",
"630 550 LINE"
);
},
{
closed = 1;
nodes = (
"1180 180 LINE",
"810 180 LINE",
"810 550 LINE",
"1180 550 LINE"
);
},
{
closed = 1;
nodes = (
"630 730 LINE",
"260 730 LINE",
"260 1100 LINE",
"630 1100 LINE"
);
},
{
closed = 1;
nodes = (
"1180 730 LINE",
"810 730 LINE",
"810 1100 LINE",
"1180 1100 LINE"
);
}
);
width = 1440;
}
);
unicode = 0023;
},
{
glyphname = question;
lastChange = "2014-01-05 14:58:21 +0000";
layers = (
{
layerId = "940E2F63-624A-4C3D-A909-721782B4CF41";
name = Regular;
paths = (
{
closed = 1;
nodes = (
"260 1280 LINE",
"80 1100 LINE",
"1180 1100 LINE",
"1180 730 LINE",
"810 730 LINE",
"630 550 LINE",
"1180 550 LINE",
"1360 730 LINE",
"1360 1100 LINE",
"1180 1280 LINE"
);
},
{
closed = 1;
nodes = (
"630 180 LINE",
"810 0 LINE",
"810 180 LINE"
);
}
);
width = 1440;
}
);
unicode = 003F;
},
{
glyphname = braceleft;
lastChange = "2014-01-05 14:58:21 +0000";
layers = (
{
layerId = "940E2F63-624A-4C3D-A909-721782B4CF41";
name = Regular;
paths = (
{
closed = 1;
nodes = (
"810 1280 LINE",
"630 1100 LINE",
"630 730 LINE",
"260 730 LINE",
"80 550 LINE",
"630 550 LINE",
"630 180 LINE",
"810 0 LINE",
"1180 0 LINE",
"1360 180 LINE",
"810 180 LINE",
"810 1100 LINE",
"1360 1100 LINE",
"1180 1280 LINE"
);
}
);
width = 1440;
}
);
unicode = 007B;
},
{
color = 0;
glyphname = dollar;
lastChange = "2014-01-05 14:58:21 +0000";
layers = (
{
components = (
{
name = S;
transform = "{1, 0, 0, 1, 0, 0}";
}
);
layerId = "940E2F63-624A-4C3D-A909-721782B4CF41";
name = Regular;
paths = (
{
closed = 1;
nodes = (
"630 1280 LINE",
"630 0 LINE",
"810 0 LINE",
"810 1280 LINE"
);
}
);
width = 1440;
}
);
unicode = 0024;
},
{
color = 0;
glyphname = euro;
lastChange = "2014-01-05 14:58:21 +0000";
layers = (
{
components = (
{
name = braceleft;
transform = "{1, 0, 0, 1, 0, 0}";
}
);
layerId = "940E2F63-624A-4C3D-A909-721782B4CF41";
name = Regular;
paths = (
{
closed = 1;
nodes = (
"630 730 LINE",
"630 550 LINE",
"1180 550 LINE",
"1360 730 LINE"
);
}
);
width = 1440;
}
);
unicode = 20AC;
},
{
glyphname = divide;
lastChange = "2014-01-05 14:58:21 +0000";
layers = (
{
layerId = "940E2F63-624A-4C3D-A909-721782B4CF41";
name = Regular;
paths = (
{
closed = 1;
nodes = (
"260 730 LINE",
"80 550 LINE",
"1180 550 LINE",
"1360 730 LINE"
);
},
{
closed = 1;
nodes = (
"630 180 LINE",
"630 0 LINE",
"810 180 LINE"
);
},
{
closed = 1;
nodes = (
"630 1100 LINE",
"810 1100 LINE",
"810 1280 LINE"
);
}
);
width = 1440;
}
);
unicode = 00F7;
},
{
color = 0;
glyphname = percent;
lastChange = "2014-01-05 14:58:21 +0000";
layers = (
{
layerId = "940E2F63-624A-4C3D-A909-721782B4CF41";
name = Regular;
paths = (
{
closed = 1;
nodes = (
"1180 730 LINE",
"260 730 LINE",
"80 550 LINE",
"80 180 LINE",
"260 0 LINE",
"260 550 LINE",
"1180 550 LINE",
"1360 730 LINE",
"1360 1100 LINE",
"1180 1280 LINE"
);
},
{
closed = 1;
nodes = (
"630 180 LINE",
"810 0 LINE",
"1180 0 LINE",
"1360 180 LINE"
);
},
{
closed = 1;
nodes = (
"260 1280 LINE",
"80 1100 LINE",
"810 1100 LINE",
"630 1280 LINE"
);
}
);
width = 1440;
}
);
unicode = 0025;
},
{
glyphname = plus;
lastChange = "2014-01-05 14:58:21 +0000";
layers = (
{
layerId = "940E2F63-624A-4C3D-A909-721782B4CF41";
name = Regular;
paths = (
{
closed = 1;
nodes = (
"630 730 LINE",
"260 730 LINE",
"80 550 LINE",
"630 550 LINE",
"630 180 LINE",
"810 0 LINE",
"810 550 LINE",
"1180 550 LINE",
"1360 730 LINE",
"810 730 LINE",
"810 1100 LINE",
"630 1280 LINE"
);
}
);
width = 1440;
}
);
unicode = 002B;
},
{
glyphname = ampersand;
lastChange = "2014-01-05 14:58:21 +0000";
layers = (
{
layerId = "940E2F63-624A-4C3D-A909-721782B4CF41";
name = Regular;
paths = (
{
closed = 1;
nodes = (
"810 1280 LINE",
"630 1100 LINE",
"630 730 LINE",
"260 730 LINE",
"80 550 LINE",
"80 180 LINE",
"260 0 LINE",
"1180 0 LINE",
"1360 180 LINE",
"260 180 LINE",
"260 550 LINE",
"1180 550 LINE",
"1360 730 LINE",
"1360 1100 LINE",
"1180 1280 LINE"
);
},
{
closed = 1;
nodes = (
"1180 730 LINE",
"810 730 LINE",
"810 1100 LINE",
"1180 1100 LINE"
);
}
);
width = 1440;
}
);
unicode = 0026;
},
{
glyphname = degree;
lastChange = "2014-01-05 14:58:21 +0000";
layers = (
{
layerId = "940E2F63-624A-4C3D-A909-721782B4CF41";
name = Regular;
paths = (
{
closed = 1;
nodes = (
"260 1280 LINE",
"80 1100 LINE",
"80 730 LINE",
"260 550 LINE",
"630 550 LINE",
"810 730 LINE",
"810 1100 LINE",
"630 1280 LINE"
);
},
{
closed = 1;
nodes = (
"1180 180 LINE",
"630 180 LINE",
"810 0 LINE",
"1180 0 LINE",
"1360 180 LINE",
"1360 550 LINE",
"1180 730 LINE"
);
},
{
closed = 1;
nodes = (
"630 730 LINE",
"260 730 LINE",
"260 1100 LINE",
"630 1100 LINE"
);
}
);
width = 1440;
}
);
unicode = 00B0;
},
